# xmcd
#
# Track frame offsets:
# 150
# 13833
# 27390
# 37490
# 47915
# 58915
# 69465
# 80690
# 92805
# 104150
# 115365
# 127328
# 140190
# 153255
# 166140
# 177990
# 189315
# 201360
# 212900
# 225935
#
# Disc length: 3156 seconds
#
#
# Revision: 7
# Processed by: cddbd v1.5.2PL0 Copyright (c) Steve Scherf et al.
# Submitted via: FreeRIP 2.80 
#
DISCID=360c5214
DTITLE=Robert Johnson - Dejavu Retro Gold Collection - CD 1
DYEAR=2001
DGENRE=Blues
TTITLE0=I Belive I Dust My Broom
TTITLE1=Drunken Hearted Man 1
TTITLE2=Drunken Hearted Man 2
TTITLE3=Malted Milk
TTITLE4=Come On On My Kitchen 1
TTITLE5=Come On On My Kitchen 2
TTITLE6=Milkcow's Calf Blues 1
TTITLE7=Milkcow's Calf Blues 1
TTITLE8=Travelling Riverside Blues
TTITLE9=Kindhearted Woman Blues 1
TTITLE10=Kindhearted Woman Blues 2
TTITLE11=From Four Till Late
TTITLE12=They're Red Hot
TTITLE13=Stop Breakin' Down Blues
TTITLE14=Hellhound On My Trail
TTITLE15=Dead Shrimp Blues
TTITLE16=Honeymoon Blues
TTITLE17=I'm A Steady Rollin' Man
TTITLE18=If I Had Possession Over Judgement day
TTITLE19=Last Fair Deal Gone Down
EXTD=CD2
EXTT0=
EXTT1=
EXTT2=
EXTT3=
EXTT4=
EXTT5=
EXTT6=
EXTT7=
EXTT8=
EXTT9=
EXTT10=
EXTT11=
EXTT12=
EXTT13=
EXTT14=
EXTT15=
EXTT16=
EXTT17=
EXTT18=
EXTT19=
PLAYORDER=
